<svg width="518" height="550" viewBox="0 0 518 550" fill="none" xmlns="http://www.w3.org/2000/svg">
<path d="M124.008 344.421L162.997 322.004L162.998 322.007C170.106 318.241 179.237 318.777 189.199 324.528C211.865 337.614 230.239 372.721 230.239 402.942C230.239 419.557 224.678 431.219 215.91 436.193L215.916 436.207L178.482 457.757L124.008 344.421Z" fill="url(#paint0_linear_7_149)"/>
<path d="M278.267 433.767L317.256 411.349L317.257 411.353C324.365 407.586 333.496 408.123 343.458 413.874C366.123 426.96 384.498 462.067 384.498 492.288C384.498 508.902 378.937 520.565 370.169 525.539L370.175 525.552L332.741 547.102L278.267 433.767Z" fill="url(#paint1_linear_7_149)"/>
<path d="M90.2328 270.348V83.3315L390.398 96.2028V283.219C390.4 287.504 388.279 291.789 384.037 294.238L265.128 362.889C256.672 367.772 246.252 367.772 237.796 362.889L96.5932 281.366C92.3533 278.919 90.2328 274.633 90.2328 270.348Z" fill="url(#paint2_linear_7_149)"/>
<path d="M384.037 85.1855L242.834 3.66199C234.378 -1.22034 223.958 -1.22034 215.502 3.66199L96.5936 72.3131C88.1115 77.2105 88.1115 89.4523 96.5936 94.3497L237.796 175.873C246.253 180.756 256.673 180.756 265.129 175.873L384.037 107.222C392.519 102.325 392.519 90.0818 384.037 85.1855Z" fill="url(#paint3_linear_7_149)"/>
<path d="M338.254 58.7521L186.596 146.312L146.366 123.085L298.024 35.5254L338.254 58.7521Z" fill="#DEA861"/>
<path d="M314.209 44.8572L162.551 132.418L170.431 136.967L322.09 49.4076L314.209 44.8572Z" fill="#CC8241"/>
<path d="M509.336 361.03L480.584 240.491C477.139 226.049 467.903 213.66 455.045 206.237L393.248 170.514C389.546 168.376 385.32 169 382.378 171.319L274.355 233.686L252.694 246.192L378.061 521.289L505.208 447.882C506.096 447.517 506.932 447.035 507.691 446.447C510.102 444.583 511.733 441.673 511.733 438.193V381.409C511.733 374.546 510.928 367.706 509.336 361.03Z" fill="url(#paint4_linear_7_149)"/>
<path d="M397 438.998L415.11 428.542C416.189 427.919 417.538 428.698 417.538 429.944V445.841C417.538 447.996 416.388 449.988 414.521 451.065L396.411 461.521C395.331 462.144 393.983 461.365 393.983 460.119V444.222C393.984 442.067 395.134 440.076 397 438.998Z" fill="#E9E5F6"/>
<path d="M486.119 387.494L504.229 377.039C505.309 376.416 506.657 377.195 506.657 378.441V394.338C506.657 396.493 505.508 398.485 503.641 399.562L485.53 410.017C484.451 410.64 483.103 409.862 483.103 408.616V392.718C483.103 390.563 484.252 388.572 486.119 387.494Z" fill="#E9E5F6"/>
<path d="M248.862 350.061V253.917C248.862 246.449 256.946 241.781 263.414 245.516L325.211 281.238C338.069 288.662 347.305 301.05 350.75 315.492L379.502 436.031C381.094 442.707 381.898 449.547 381.898 456.41V513.194C381.898 521.247 373.18 526.281 366.205 522.255L102.436 369.496C94.7638 365.067 90.0383 356.881 90.0383 348.022V288.008C90.0383 283.161 95.2859 280.131 99.4829 282.555L232.284 359.609C239.643 363.879 248.862 358.569 248.862 350.061Z" fill="#06DAAE"/>
<path d="M264.826 365.925V267.39L314.698 296.229C319.63 299.076 323.107 303.9 324.25 309.479L345.339 412.455L264.826 365.925Z" fill="url(#paint5_linear_7_149)"/>
<path d="M476.609 250L365.853 313.945L388.616 412.454L499.373 348.509L476.609 250Z" fill="url(#paint6_linear_7_149)"/>
<path d="M264.568 466.661C264.568 436.44 282.942 422.549 305.607 435.635C328.273 448.722 346.647 483.828 346.647 514.049C346.647 544.27 328.272 558.161 305.607 545.075C282.941 531.989 264.568 496.882 264.568 466.661Z" fill="url(#paint7_linear_7_149)"/>
<path d="M321.155 526.223C332.431 521.419 334.687 501.366 326.195 481.435C317.702 461.503 301.676 449.24 290.401 454.045C279.125 458.85 276.868 478.902 285.361 498.833C293.853 518.765 309.879 531.028 321.155 526.223Z" fill="#E9E5F6"/>
<path d="M313.612 508.518C319.356 506.07 320.506 495.854 316.179 485.7C311.853 475.546 303.688 469.298 297.944 471.746C292.199 474.194 291.049 484.41 295.376 494.564C299.703 504.718 307.867 510.966 313.612 508.518Z" fill="#7662BD"/>
<path d="M110.309 377.315C110.309 347.094 128.683 333.203 151.348 346.289C174.014 359.376 192.388 394.483 192.388 424.703C192.388 454.924 174.013 468.815 151.348 455.729C128.682 442.644 110.309 407.536 110.309 377.315Z" fill="url(#paint8_linear_7_149)"/>
<path d="M166.878 436.962C178.154 432.158 180.411 412.105 171.918 392.174C163.426 372.243 147.4 359.98 136.124 364.784C124.848 369.589 122.592 389.641 131.084 409.573C139.577 429.504 155.602 441.767 166.878 436.962Z" fill="#E9E5F6"/>
<path d="M138.331 393.494C138.331 383.907 144.159 379.502 151.348 383.653C158.538 387.804 164.366 398.939 164.366 408.525C164.366 418.112 158.537 422.517 151.348 418.366C144.159 414.215 138.331 403.08 138.331 393.494Z" fill="#7662BD"/>
<path d="M511.372 432.506L378.158 505.444L353.606 493.644V522.201L374.669 534.362C378.387 536.508 382.968 536.508 386.686 534.362L515.399 460.049C517.075 459.082 517.911 457.389 517.911 455.696V427.139L511.372 432.506Z" fill="url(#paint9_linear_7_149)"/>
<path d="M359.304 490.355L381.898 503.399L511.733 428.439V420.67L515.399 422.787C518.749 424.721 518.749 429.557 515.399 431.491L386.686 505.803C382.968 507.95 378.387 507.95 374.669 505.803L353.606 493.643L359.304 490.355Z" fill="#A996EB"/>
<path d="M424.6 453.278L479.046 421.844V431.181C479.046 437.114 475.882 442.596 470.742 445.562L432.778 467.481C429.143 469.58 424.599 466.956 424.599 462.758V453.278H424.6Z" fill="url(#paint10_linear_7_149)"/>
<path d="M9.54819 151.327L104.027 205.875C108.854 208.663 111.828 213.814 111.828 219.388C111.828 224.242 106.573 227.277 102.368 224.849L7.8896 170.301C3.06206 167.514 0.088623 162.363 0.088623 156.789C0.088623 151.934 5.3437 148.9 9.54819 151.327Z" fill="url(#paint11_linear_7_149)"/>
<path d="M44.0854 211.482L138.564 266.03C143.392 268.818 146.365 273.969 146.365 279.543C146.365 284.397 141.11 287.432 136.905 285.004L42.4268 230.455C37.5993 227.668 34.6259 222.517 34.6259 216.943C34.6259 212.089 39.8809 209.055 44.0854 211.482Z" fill="url(#paint12_linear_7_149)"/>
<defs>
<linearGradient id="paint0_linear_7_149" x1="181.049" y1="377.475" x2="164.175" y2="348.248" gradientUnits="userSpaceOnUse">
<stop stop-color="#43386B"/>
<stop offset="1" stop-color="#7662BD"/>
</linearGradient>
<linearGradient id="paint1_linear_7_149" x1="335.308" y1="466.82" x2="318.434" y2="437.594" gradientUnits="userSpaceOnUse">
<stop stop-color="#43386B"/>
<stop offset="1" stop-color="#7662BD"/>
</linearGradient>
<linearGradient id="paint2_linear_7_149" x1="275.455" y1="224.943" x2="234.222" y2="224.943" gradientUnits="userSpaceOnUse">
<stop stop-color="#DEA861"/>
<stop offset="1" stop-color="#CC8241"/>
</linearGradient>
<linearGradient id="paint3_linear_7_149" x1="323.882" y1="41.5207" x2="169.465" y2="130.673" gradientUnits="userSpaceOnUse">
<stop stop-color="#DEA861"/>
<stop offset="1" stop-color="#EBCBA0"/>
</linearGradient>
<linearGradient id="paint4_linear_7_149" x1="418.455" y1="359.818" x2="363.537" y2="264.696" gradientUnits="userSpaceOnUse">
<stop stop-color="#236568"/>
<stop offset="0.1516" stop-color="#276A6C"/>
<stop offset="0.3251" stop-color="#337878"/>
<stop offset="0.5094" stop-color="#478E8C"/>
<stop offset="0.7011" stop-color="#62AFA7"/>
<stop offset="0.8968" stop-color="#86D7CA"/>
<stop offset="1" stop-color="#9BF0DF"/>
</linearGradient>
<linearGradient id="paint5_linear_7_149" x1="305.083" y1="407.417" x2="305.083" y2="282.884" gradientUnits="userSpaceOnUse">
<stop stop-color="#43386B"/>
<stop offset="1" stop-color="#7662BD"/>
</linearGradient>
<linearGradient id="paint6_linear_7_149" x1="432.613" y1="406.813" x2="432.613" y2="267.352" gradientUnits="userSpaceOnUse">
<stop stop-color="#43386B"/>
<stop offset="1" stop-color="#7662BD"/>
</linearGradient>
<linearGradient id="paint7_linear_7_149" x1="305.607" y1="566.838" x2="305.607" y2="418.759" gradientUnits="userSpaceOnUse">
<stop stop-color="#43386B"/>
<stop offset="1" stop-color="#7662BD"/>
</linearGradient>
<linearGradient id="paint8_linear_7_149" x1="151.348" y1="477.492" x2="151.348" y2="329.415" gradientUnits="userSpaceOnUse">
<stop stop-color="#43386B"/>
<stop offset="1" stop-color="#7662BD"/>
</linearGradient>
<linearGradient id="paint9_linear_7_149" x1="376.644" y1="481.556" x2="396.461" y2="481.556" gradientUnits="userSpaceOnUse">
<stop stop-color="#43386B"/>
<stop offset="1" stop-color="#7662BD"/>
</linearGradient>
<linearGradient id="paint10_linear_7_149" x1="451.823" y1="466.609" x2="451.823" y2="426.797" gradientUnits="userSpaceOnUse">
<stop stop-color="#43386B"/>
<stop offset="1" stop-color="#594A8E"/>
</linearGradient>
<linearGradient id="paint11_linear_7_149" x1="120.29" y1="227.677" x2="8.04429" y2="158.602" gradientUnits="userSpaceOnUse">
<stop stop-color="#43386B"/>
<stop offset="1" stop-color="#7662BD"/>
</linearGradient>
<linearGradient id="paint12_linear_7_149" x1="154.829" y1="287.831" x2="42.5815" y2="218.757" gradientUnits="userSpaceOnUse">
<stop stop-color="#43386B"/>
<stop offset="1" stop-color="#7662BD"/>
</linearGradient>
</defs>
</svg>
