<svg width="73" height="85" viewBox="0 0 73 85" fill="none" xmlns="http://www.w3.org/2000/svg">
<g id="Group">
<path id="Vector" d="M5.22705 49.1008L11.2265 45.6484L11.2267 45.6489C12.3204 45.0688 13.7254 45.1513 15.2584 46.0372C18.746 48.0524 21.5733 53.4592 21.5733 58.1133C21.5733 60.6721 20.7176 62.4682 19.3685 63.2342L19.3695 63.2362L13.6093 66.555L5.22705 49.1008Z" fill="url(#paint0_linear_7_567)"/>
<path id="Vector_2" d="M36.375 67.0994L42.3745 63.647L42.3746 63.6475C43.4684 63.0674 44.8733 63.1501 46.4062 64.0358C49.8938 66.051 52.7211 71.4578 52.7211 76.1121C52.7211 78.6709 51.8654 80.467 50.5163 81.233L50.5173 81.235L44.757 84.5538L36.375 67.0994Z" fill="url(#paint1_linear_7_567)"/>
<g id="Group_2">
<path id="Vector_3" d="M0.0297852 41.635V12.8333L46.2174 14.8155V43.617C46.2174 44.2769 45.8913 44.937 45.2386 45.314L26.9418 55.8867C25.6405 56.6386 24.0372 56.6386 22.7359 55.8867L1.0086 43.332C0.355891 42.9548 0.0296193 42.2949 0.0297852 41.635Z" fill="url(#paint2_linear_7_567)"/>
<path id="Vector_4" d="M45.2384 13.119L23.5111 0.563913C22.2098 -0.187971 20.6065 -0.187971 19.3052 0.563913L1.0086 11.1366C-0.296487 11.8908 -0.296487 13.7761 1.0086 14.5303L22.7359 27.0854C24.0372 27.8373 25.6405 27.8373 26.9418 27.0854L45.2386 16.5127C46.5437 15.7585 46.5437 13.8732 45.2384 13.119Z" fill="url(#paint3_linear_7_567)"/>
<path id="Vector_5" d="M38.1938 9.04808L14.8577 22.5327L8.66748 18.9557L32.0036 5.47095L38.1938 9.04808Z" fill="#DEA861"/>
<path id="Vector_6" d="M34.4943 6.90833L11.1582 20.3929L12.3707 21.0937L35.7069 7.60891L34.4943 6.90833Z" fill="#CC8241"/>
<path id="Vector_7" d="M14.8577 22.5327V27.6493L8.66748 24.0723V18.9557L14.8577 22.5327Z" fill="#BA5C25"/>
</g>
<path id="Vector_8" d="M70.5844 50.5685L63.2481 46.3293L60.094 33.0947C59.5639 30.8705 58.1427 28.9626 56.1641 27.8194L46.6553 22.318C46.0857 21.9886 45.4353 22.0847 44.9827 22.4418L28.3609 32.0467L25.0278 33.9726L52.0789 82.0386L72.0582 70.4984V53.1233C72.0582 52.0695 71.4964 51.0956 70.5844 50.5685Z" fill="url(#paint4_linear_7_567)"/>
<path id="Vector_9" d="M54.3762 68.3942L57.1629 66.784C57.3289 66.6881 57.5366 66.8079 57.5366 67V69.4484C57.5366 69.7803 57.3598 70.0869 57.0725 70.2529L54.2858 71.8631C54.1198 71.9591 53.9121 71.839 53.9121 71.6471V69.1987C53.9123 68.8669 54.0891 68.5601 54.3762 68.3942Z" fill="#E9E5F6"/>
<path id="Vector_10" d="M68.0891 60.4623L70.8758 58.8521C71.0418 58.7562 71.2495 58.8762 71.2495 59.0679V61.5163C71.2495 61.8482 71.0725 62.1548 70.7854 62.3209L67.9987 63.931C67.8327 64.027 67.625 63.9071 67.625 63.7152V61.2668C67.625 60.935 67.8018 60.6283 68.0891 60.4623Z" fill="#E9E5F6"/>
<path id="Vector_11" d="M43.2679 57.8687L40.1165 44.6454C39.5864 42.4211 38.1652 40.5133 36.1866 39.3701L26.6778 33.8687C25.6826 33.2936 24.4385 34.0124 24.4385 35.1626V53.763C24.4385 55.0732 23.02 55.891 21.8876 55.2334L1.45321 43.3666C0.807303 42.9932 0 43.4599 0 44.2063V49.6553C0 51.0196 0.727186 52.2801 1.9077 52.9623L42.4946 76.4882L52.0794 82.0386V64.6636C52.0794 63.6097 51.5176 62.6357 50.6056 62.1087L43.2679 57.8687Z" fill="#FFC538"/>
<path id="Vector_12" d="M59.4824 34.5593L42.4399 44.4074L44.6756 54.4228L61.718 44.5749L59.4824 34.5593Z" fill="url(#paint5_linear_7_567)"/>
<path id="Vector_13" d="M34.2671 72.1652C34.2671 67.511 37.0944 65.3718 40.582 67.3871C44.0697 69.4024 46.897 74.8092 46.897 79.4634C46.897 84.1177 44.0697 86.2568 40.582 84.2415C37.0942 82.2261 34.2671 76.8194 34.2671 72.1652Z" fill="url(#paint6_linear_7_567)"/>
<path id="Vector_14" d="M36.6499 73.5424C36.6499 70.6446 38.4101 69.3126 40.5816 70.5675C42.753 71.8223 44.5133 75.1886 44.5133 78.0864C44.5133 80.9842 42.753 82.3159 40.5816 81.0612C38.4101 79.8063 36.6499 76.4402 36.6499 73.5424Z" fill="#E9E5F6"/>
<path id="Vector_15" d="M41.8141 78.6129C42.698 78.2359 42.8749 76.6626 42.2092 75.0988C41.5434 73.535 40.2872 72.5728 39.4032 72.9498C38.5193 73.3267 38.3424 74.9001 39.0082 76.4639C39.6739 78.0277 40.9302 78.9898 41.8141 78.6129Z" fill="#7662BD"/>
<path id="Vector_16" d="M3.11914 54.1667C3.11914 49.5124 5.94644 47.3733 9.43408 49.3886C12.9217 51.4038 15.749 56.8106 15.749 61.4647C15.749 66.119 12.9217 68.2581 9.43408 66.2428C5.94644 64.2275 3.11914 58.8209 3.11914 54.1667Z" fill="url(#paint7_linear_7_567)"/>
<path id="Vector_17" d="M11.823 63.3577C13.5581 62.6178 13.9053 59.5296 12.5986 56.4601C11.2918 53.3906 8.82593 51.5021 7.09085 52.242C5.35578 52.982 5.00855 56.0701 6.31531 59.1396C7.62206 62.2092 10.088 64.0977 11.823 63.3577Z" fill="#E9E5F6"/>
<path id="Vector_18" d="M10.6627 60.6313C11.5467 60.2543 11.7235 58.681 11.0578 57.1172C10.3921 55.5534 9.1358 54.5913 8.25187 54.9682C7.36794 55.3452 7.19106 56.9185 7.8568 58.4823C8.52255 60.0461 9.77881 61.0083 10.6627 60.6313Z" fill="#7662BD"/>
<path id="Vector_19" d="M71.9936 67.2761L51.4955 78.5089L47.7178 76.6919V81.0898L50.9586 82.9626C51.5307 83.2931 52.2357 83.2931 52.8077 82.9626L72.6133 71.518C72.871 71.3691 72.9999 71.1084 72.9999 70.8478V66.4497L71.9936 67.2761Z" fill="url(#paint8_linear_7_567)"/>
<path id="Vector_20" d="M48.5941 76.1852L52.0708 78.1942L72.0488 66.65V65.4535L72.613 65.7795C73.1285 66.0774 73.1285 66.8223 72.613 67.1201L52.8074 78.5647C52.2353 78.8953 51.5304 78.8953 50.9583 78.5647L47.7173 76.6919L48.5941 76.1852Z" fill="#A996EB"/>
<path id="Vector_21" d="M58.623 66.2326L67.0008 61.3916V62.8296C67.0008 63.7434 66.5138 64.5877 65.7231 65.0444L59.8815 68.42C59.3222 68.7433 58.623 68.3392 58.623 67.6927V66.2326Z" fill="url(#paint9_linear_7_567)"/>
<path id="Vector_22" d="M36.0389 43.7193C35.8631 42.86 35.3282 42.1172 34.5691 41.6788L26.895 37.2375V48.4079L38.353 55.0289L36.0389 43.7193Z" fill="url(#paint10_linear_7_567)"/>
</g>
<defs>
<linearGradient id="paint0_linear_7_567" x1="14.0042" y1="54.1912" x2="11.4044" y2="49.692" gradientUnits="userSpaceOnUse">
<stop stop-color="#43386B"/>
<stop offset="1" stop-color="#7662BD"/>
</linearGradient>
<linearGradient id="paint1_linear_7_567" x1="45.1523" y1="72.19" x2="42.5526" y2="67.6907" gradientUnits="userSpaceOnUse">
<stop stop-color="#43386B"/>
<stop offset="1" stop-color="#7662BD"/>
</linearGradient>
<linearGradient id="paint2_linear_7_567" x1="28.5304" y1="34.6422" x2="22.1857" y2="34.6422" gradientUnits="userSpaceOnUse">
<stop stop-color="#DEA861"/>
<stop offset="1" stop-color="#CC8241"/>
</linearGradient>
<linearGradient id="paint3_linear_7_567" x1="35.9822" y1="6.39438" x2="12.2112" y2="20.1066" gradientUnits="userSpaceOnUse">
<stop stop-color="#DEA861"/>
<stop offset="1" stop-color="#EBCBA0"/>
</linearGradient>
<linearGradient id="paint4_linear_7_567" x1="63.1598" y1="71.5121" x2="39.961" y2="26.6377" gradientUnits="userSpaceOnUse">
<stop stop-color="#E37A34"/>
<stop offset="1" stop-color="#FFC538"/>
</linearGradient>
<linearGradient id="paint5_linear_7_567" x1="52.079" y1="53.7331" x2="52.079" y2="36.681" gradientUnits="userSpaceOnUse">
<stop stop-color="#43386B"/>
<stop offset="1" stop-color="#7662BD"/>
</linearGradient>
<linearGradient id="paint6_linear_7_567" x1="40.582" y1="87.593" x2="40.582" y2="64.7881" gradientUnits="userSpaceOnUse">
<stop stop-color="#43386B"/>
<stop offset="1" stop-color="#7662BD"/>
</linearGradient>
<linearGradient id="paint7_linear_7_567" x1="9.43408" y1="69.5945" x2="9.43408" y2="46.7896" gradientUnits="userSpaceOnUse">
<stop stop-color="#43386B"/>
<stop offset="1" stop-color="#7662BD"/>
</linearGradient>
<linearGradient id="paint8_linear_7_567" x1="51.2625" y1="74.8302" x2="54.3117" y2="74.8302" gradientUnits="userSpaceOnUse">
<stop stop-color="#43386B"/>
<stop offset="1" stop-color="#7662BD"/>
</linearGradient>
<linearGradient id="paint9_linear_7_567" x1="62.8118" y1="68.2857" x2="62.8118" y2="62.1543" gradientUnits="userSpaceOnUse">
<stop stop-color="#43386B"/>
<stop offset="1" stop-color="#594A8E"/>
</linearGradient>
<linearGradient id="paint10_linear_7_567" x1="32.6241" y1="54.411" x2="32.6241" y2="39.1378" gradientUnits="userSpaceOnUse">
<stop stop-color="#43386B"/>
<stop offset="1" stop-color="#7662BD"/>
</linearGradient>
</defs>
</svg>
